<?xml version="1.0" ?><svg id="Layer_1" style="enable-background:new 0 0 128 128;" version="1.1" viewBox="0 0 128 128" xml:space="preserve" xmlns="http://www.w3.org/2000/svg" xmlns:xlink="http://www.w3.org/1999/xlink"><g><path d="M69,30.1C58,30.1,49.1,39,49.1,50S58,69.9,69,69.9S88.9,61,88.9,50S80,30.1,69,30.1z M69,61.9c-6.6,0-11.9-5.4-11.9-11.9   S62.4,38.1,69,38.1S80.9,43.4,80.9,50S75.6,61.9,69,61.9z"/><polygon points="42,9 112,9 112,119 16,119 16,9 24,9 24,109 32,109 32,1 8,1 8,127 120,127 120,1 42,1  "/><path d="M51.5,82.6l4.2,6.8c4-2.3,8.6-3.5,13.3-3.5c4.7,0,9.3,1.2,13.3,3.4l4.2-6.8C81.2,79.6,75.2,78,69,78   C62.8,78,56.8,79.6,51.5,82.6z"/></g></svg>