<?xml version="1.0" ?><svg id="Layer_1" style="enable-background:new 0 0 128 128;" version="1.1" viewBox="0 0 128 128" xml:space="preserve" xmlns="http://www.w3.org/2000/svg" xmlns:xlink="http://www.w3.org/1999/xlink"><g><path d="M53,13H7v4c0,57.3,46.7,104,104,104h4V75H73.6L54.2,94.4C45.6,88,38.1,80.3,32,71.4l21-21V13z M76.9,83H107v29.9   c-16.8-0.7-32.5-5.7-46-14L76.9,83z M45,47.1L27.6,64.5C20.2,51.6,15.7,36.8,15.1,21H45V47.1z"/><path d="M106,57h8c-0.5-23.5-19.5-42.5-43-43v8C90.1,22.5,105.5,37.9,106,57z"/><path d="M71,42c8,0.5,14.5,6.9,15,15h8c-0.5-12.4-10.5-22.5-23-23V42z"/></g></svg>