<?xml version="1.0" ?><svg id="Layer_1" style="enable-background:new 0 0 128 128;" version="1.1" viewBox="0 0 128 128" xml:space="preserve" xmlns="http://www.w3.org/2000/svg" xmlns:xlink="http://www.w3.org/1999/xlink"><g><path d="M65,2C30.8,2,3,29.8,3,64c0,15.8,5.9,30.8,16.7,42.3l-13.8,13v6.7H65c34.2,0,62-27.8,62-62S99.2,2,65,2z M65,118H18.9   l12.3-11.5l-4.3-4.3C16.6,92,11,78.4,11,64c0-29.8,24.2-54,54-54s54,24.2,54,54S94.8,118,65,118z"/><path d="M64.3,80.6c-6.4-4.1-11.8-9.7-15.7-16.3l6.7-6.7V39.7H33.7C33.7,71,59,96.3,90.3,96.3V74.8l-20.2,0L64.3,80.6z"/></g></svg>